# xmcd CD database file
#
# Track frame offsets:
#	150
#	18120
#	34650
#	54702
#	72038
#	90674
#	108829
#	131492
#	149493
#	167003
#	179198
#	193152
#	204759
#	219067
#	233190
#	247918
#	261438
#	274604
#	289308
#
# Disc length: 4031 seconds
#
# Revision: 0
# Processed by: cddbd v1.5.2PL0 Copyright (c) Steve Scherf et al.
# Submitted via: CDex 1.70beta2
#
DISCID=140fbd13
DTITLE=Dizzy Gillespie and Charlie Parker - Bebop Story Vol. 2 1945 CD 012
DYEAR=2008
DGENRE=Jazz
TTITLE0=Hallelujah
TTITLE1=Get Happy
TTITLE2=Slam Slam Blues
TTITLE3=Congo Blues
TTITLE4=Hallelujah
TTITLE5=Get Happy
TTITLE6=Slam Slam Blues
TTITLE7=Congo Blues
TTITLE8=Congo Blues
TTITLE9=Billie's Bounce
TTITLE10=Billie's Bounce
TTITLE11=Warming Up A Riff
TTITLE12=Billie's Bounce
TTITLE13=Now's The Time
TTITLE14=Now's The Time
TTITLE15=Thriving On A Riff
TTITLE16=Thriving On A Riff
TTITLE17=Meandering
TTITLE18=Koko
EXTD=YEAR: 2008
EXTT0=
EXTT1=
EXTT2=
EXTT3=
EXTT4=
EXTT5=
EXTT6=
EXTT7=
EXTT8=
EXTT9=
EXTT10=
EXTT11=
EXTT12=
EXTT13=
EXTT14=
EXTT15=
EXTT16=
EXTT17=
EXTT18=
PLAYORDER=
